<svg width="103" height="45" viewBox="0 0 103 45" fill="none" xmlns="http://www.w3.org/2000/svg">
<g clip-path="url(#clip0_6349_42527)">
<path d="M30.6066 10.431C29.7474 11.3073 29.7596 12.719 30.631 13.5831C31.5024 14.4472 32.902 14.4375 33.7612 13.5588C38.308 8.90482 44.493 6.2395 51.1064 6.2395C57.7198 6.2395 63.7247 8.82693 68.2546 13.3592C69.1211 14.2257 70.5231 14.2209 71.3848 13.347C72.244 12.4732 72.2391 11.059 71.3726 10.1925C66.0176 4.83747 58.7981 1.77783 51.1064 1.77783C43.4147 1.77783 35.9786 4.9324 30.6091 10.431" fill="#5CDB95" fill-opacity="0.7"/>
<path d="M35.5698 15.3406C34.7106 16.2169 34.7227 17.6311 35.5917 18.4952C36.4607 19.3593 37.8627 19.3496 38.7219 18.4733C41.969 15.1508 46.3844 13.2498 51.1041 13.2498C55.8238 13.2498 60.1005 15.0899 63.3354 18.32C64.2043 19.1865 65.6039 19.1792 66.4656 18.3029C67.3248 17.4266 67.3175 16.0173 66.4486 15.1508C62.3909 11.1053 56.9264 8.79053 51.1041 8.79053C45.2818 8.79053 39.6396 11.1784 35.5698 15.3431" fill="#5CDB95" fill-opacity="0.7"/>
<path d="M40.9268 20.7536C40.0725 21.6347 40.0895 23.0465 40.9634 23.9082C41.8372 24.7698 43.2392 24.7528 44.0936 23.8717C45.9265 21.9804 48.4287 20.8948 51.1062 20.8948C53.7837 20.8948 56.1764 21.9317 57.9995 23.75C58.8685 24.6165 60.2705 24.6092 61.1273 23.7329C61.9865 22.8566 61.9816 21.4449 61.1102 20.5783C58.4668 17.9422 54.9009 16.4331 51.1037 16.4331C47.3066 16.4331 43.5849 18.0104 40.9268 20.7536Z" fill="#5CDB95" fill-opacity="0.7"/>
<path d="M10.6621 44.2963C10.6621 43.9677 10.6694 43.6439 10.684 43.3299C10.6986 43.0159 10.7278 42.7092 10.774 42.4098L10.7521 42.3879C10.482 43.0159 10.0317 43.5295 9.39636 43.9238C8.75863 44.3206 8.02354 44.5178 7.18621 44.5178C6.16877 44.5178 5.38499 44.2159 4.83002 43.6074C4.27505 43.0038 4 42.2443 4 41.3315C4 40.6719 4.15335 40.0999 4.46004 39.6155C4.76674 39.1311 5.2 38.7246 5.76227 38.4033C6.32211 38.082 6.99879 37.8435 7.7923 37.6853C8.58581 37.5271 9.46695 37.4516 10.4381 37.4516V37.0476C10.4381 36.3149 10.2775 35.8062 9.9562 35.5214C9.6349 35.2366 9.13104 35.0954 8.4422 35.0954C7.93348 35.0954 7.35903 35.1709 6.714 35.3194C6.0714 35.4678 5.52617 35.6553 5.07586 35.8792L4.60365 33.6569C5.17323 33.4476 5.83043 33.2674 6.57769 33.119C7.32495 32.9705 8.06492 32.895 8.80001 32.895C9.68115 32.895 10.4065 32.9802 10.9761 33.153C11.5432 33.3259 12.0008 33.5741 12.344 33.9052C12.6872 34.2338 12.9355 34.6427 13.084 35.1271C13.2325 35.6139 13.3079 36.1786 13.3079 36.8212V41.4192C13.3079 41.8695 13.3152 42.3368 13.3298 42.8212C13.3444 43.308 13.3663 43.7973 13.3956 44.2914H10.6596L10.6621 44.2963ZM10.4381 39.338C9.70549 39.338 9.0994 39.3843 8.61989 39.4719C8.14037 39.562 7.76552 39.6812 7.48804 39.8297C7.21055 39.9806 7.02069 40.1583 6.91603 40.3676C6.81136 40.577 6.76025 40.7936 6.76025 41.02C6.76025 41.3924 6.88439 41.704 7.13023 41.9498C7.37607 42.1981 7.70224 42.3198 8.10629 42.3198C8.46654 42.3198 8.78784 42.2419 9.07019 42.0861C9.35498 41.9303 9.59839 41.7283 9.80042 41.48C10.0024 41.2342 10.1607 40.9518 10.2726 40.6378C10.3846 40.3238 10.4406 40.0025 10.4406 39.6739V39.338H10.4381Z" fill="#F2F2F2" fill-opacity="0.8"/>
<path d="M22.8471 44.2961C22.8471 44.0406 22.8544 43.7193 22.869 43.3298C22.8836 42.9404 22.9201 42.5972 22.981 42.2978H22.9591C22.6159 42.9574 22.129 43.4905 21.5011 43.9018C20.8731 44.3132 20.0942 44.5176 19.1668 44.5176C18.5388 44.5176 18.013 44.4252 17.5846 44.2377C17.1586 44.0503 16.8179 43.7972 16.5647 43.4759C16.3116 43.1546 16.1266 42.7797 16.0146 42.3538C15.9027 41.9278 15.8467 41.4677 15.8467 40.9761V33.1456H18.697V40.2799C18.697 40.8471 18.7944 41.2949 18.9891 41.6235C19.1838 41.9521 19.5489 42.1176 20.0893 42.1176C20.4471 42.1176 20.7879 42.0203 21.1092 41.8256C21.4305 41.6308 21.7031 41.3728 21.927 41.0515C22.151 40.7302 22.3311 40.3529 22.4649 39.9197C22.5988 39.484 22.667 39.0215 22.667 38.5274V33.1432H25.5392V44.2937H22.8471V44.2961Z" fill="#F2F2F2" fill-opacity="0.8"/>
<path d="M34.2052 44.2041C33.845 44.2942 33.4506 44.3696 33.0174 44.428C32.5817 44.4889 32.1728 44.5181 31.7833 44.5181C31.1699 44.5181 30.6539 44.4597 30.2352 44.3404C29.8166 44.2211 29.4831 44.0215 29.2373 43.7465C28.9914 43.469 28.8162 43.1112 28.7091 42.6682C28.6044 42.2276 28.5508 41.6775 28.5508 41.0203V35.3659H26.623V33.1436H28.5508V29.7116L31.3987 28.9497V33.1436H34.1127V35.3659H31.3987V40.256C31.3987 40.9741 31.4961 41.4609 31.6908 41.714C31.8855 41.9672 32.2287 42.0937 32.7229 42.0937C33.217 42.0937 33.6429 42.0426 34.0032 41.9355L34.2052 44.2017V44.2041Z" fill="#F2F2F2" fill-opacity="0.8"/>
<path d="M45.851 38.5086C45.851 39.3897 45.7122 40.1978 45.4372 40.9305C45.1597 41.6632 44.7678 42.296 44.2591 42.8266C43.7504 43.3573 43.1491 43.7735 42.453 44.0729C41.7568 44.3723 40.9901 44.5208 40.1528 44.5208C39.3593 44.5208 38.6437 44.4161 37.9986 44.2068C37.356 43.9974 36.8108 43.664 36.3605 43.2088C35.9126 42.7512 35.5645 42.1694 35.3163 41.4587C35.0704 40.7479 34.9463 39.9009 34.9463 38.9126C34.9463 38.0461 35.085 37.2453 35.3601 36.5126C35.6376 35.78 36.0246 35.1471 36.526 34.6165C37.0274 34.0859 37.6262 33.6696 38.3199 33.3702C39.0161 33.0708 39.7901 32.9224 40.642 32.9224C42.2266 32.9224 43.4899 33.3751 44.4343 34.2781C45.3763 35.1836 45.8485 36.593 45.8485 38.5086M42.8863 38.6644C42.8863 37.5885 42.6915 36.7658 42.3021 36.1962C41.9126 35.6291 41.2919 35.3443 40.44 35.3443C40.126 35.3443 39.8145 35.4076 39.5078 35.5341C39.2011 35.6607 38.9284 35.8603 38.6899 36.128C38.4514 36.3982 38.2591 36.739 38.1179 37.1479C37.9767 37.5593 37.9061 38.0485 37.9061 38.6181C37.9061 40.9232 38.7362 42.0745 40.3962 42.0745C41.1142 42.0745 41.7082 41.7897 42.1804 41.2226C42.6526 40.653 42.8863 39.8011 42.8863 38.6644Z" fill="#F2F2F2" fill-opacity="0.8"/>
<path d="M56.0182 40.0083C56.0182 40.6655 55.8917 41.2691 55.6361 41.8144C55.3829 42.3596 55.0178 42.8318 54.548 43.2286C54.0758 43.6253 53.5038 43.932 52.832 44.1487C52.1578 44.3653 51.4105 44.4748 50.5878 44.4748C50.0036 44.4748 49.4365 44.4359 48.8815 44.3629C48.329 44.2874 47.8275 44.1852 47.3797 44.0489L47.6255 42.6347C48.105 42.8148 48.604 42.9584 49.1273 43.0606C49.6507 43.1653 50.174 43.2188 50.6973 43.2188C51.2207 43.2188 51.6929 43.1629 52.1553 43.0509C52.6178 42.9389 53.0219 42.7612 53.3675 42.5227C53.7107 42.2842 53.9882 41.975 54.1975 41.5929C54.4069 41.2107 54.5115 40.7434 54.5115 40.1908C54.5115 39.5629 54.3339 39.0614 53.9736 38.6866C53.6134 38.3117 53.1704 37.9953 52.6397 37.7349C52.1091 37.472 51.5322 37.2286 50.9115 37.0046C50.2908 36.7807 49.7164 36.5081 49.1858 36.1843C48.6551 35.8631 48.2097 35.4639 47.8495 34.9843C47.4916 34.5073 47.3115 33.872 47.3115 33.0785C47.3115 32.4943 47.4211 31.9539 47.6377 31.4525C47.8543 30.9511 48.1756 30.5178 48.6016 30.1503C49.0276 29.7852 49.5509 29.4955 50.1716 29.2862C50.7923 29.0768 51.5054 28.9722 52.3136 28.9722C52.776 28.9722 53.2458 28.9989 53.7156 29.0501C54.1854 29.1036 54.6235 29.1742 55.0276 29.2643L54.8499 30.5665C54.4458 30.4472 54.015 30.3499 53.5598 30.2744C53.1022 30.1989 52.6592 30.1624 52.2235 30.1624C51.0576 30.1624 50.1886 30.4131 49.6215 30.9146C49.0519 31.416 48.7671 32.0854 48.7671 32.9227C48.7671 33.5361 48.9472 34.0253 49.3075 34.3929C49.6677 34.7604 50.1156 35.072 50.6535 35.3349C51.1914 35.5953 51.7708 35.8411 52.3915 36.0651C53.0121 36.289 53.5915 36.5616 54.1294 36.8829C54.6673 37.2042 55.1176 37.6083 55.4754 38.0951C55.8357 38.5795 56.0134 39.2196 56.0134 40.0132" fill="#F2F2F2" fill-opacity="0.8"/>
<path d="M66.8603 37.4547V37.7687C66.8603 37.905 66.8457 38.1192 66.8165 38.4186H59.2562C59.227 39.1975 59.2854 39.9034 59.4339 40.5387C59.5848 41.174 59.8209 41.6925 60.1398 42.0965C60.4635 42.5006 60.87 42.7951 61.3641 42.9825C61.8582 43.17 62.4327 43.2625 63.0899 43.2625C63.6303 43.2625 64.1682 43.2065 64.7061 43.0945C65.2441 42.9825 65.7528 42.8219 66.2323 42.6126L66.5 43.8004C65.9767 44.0097 65.4023 44.1728 64.7743 44.2945C64.1463 44.4138 63.4793 44.4722 62.7783 44.4722C61.1475 44.4722 59.9037 44.0122 59.042 43.0921C58.1828 42.172 57.752 40.7237 57.752 38.7521C57.752 37.9294 57.8615 37.1626 58.0781 36.4519C58.2948 35.7411 58.6136 35.1278 59.0323 34.6117C59.4509 34.0957 59.9548 33.6917 60.5463 33.3996C61.1353 33.1075 61.812 32.9614 62.5763 32.9614C63.3406 32.9614 63.9881 33.0807 64.5284 33.3192C65.0664 33.5578 65.5118 33.8912 65.8623 34.3172C66.2128 34.7432 66.4684 35.2227 66.6242 35.7533C66.78 36.2839 66.8603 36.8487 66.8603 37.4474M65.356 37.1992C65.356 36.2718 65.1029 35.5221 64.5942 34.9452C64.0854 34.3683 63.382 34.0811 62.4862 34.0811C61.6635 34.0811 60.9722 34.3586 60.4124 34.9111C59.8526 35.4637 59.4899 36.2718 59.3244 37.333H65.3585V37.1967L65.356 37.1992Z" fill="#F2F2F2" fill-opacity="0.8"/>
<path d="M88.1827 41.021C88.1827 41.5006 88.078 41.9484 87.8687 42.3671C87.6594 42.7858 87.36 43.1509 86.9705 43.4673C86.5835 43.7813 86.104 44.0296 85.5344 44.2073C84.9673 44.3874 84.3223 44.4774 83.6066 44.4774C83.1734 44.4774 82.7352 44.4555 82.2947 44.4093C81.8541 44.3655 81.4598 44.29 81.1166 44.1853L81.3186 42.8393C81.6764 42.9756 82.0805 43.0803 82.5308 43.1533C82.9786 43.2288 83.4216 43.2653 83.8549 43.2653C84.6922 43.2653 85.3811 43.0827 85.919 42.7152C86.4569 42.35 86.7271 41.8511 86.7271 41.2231C86.7271 40.7436 86.5884 40.3784 86.3109 40.1229C86.0334 39.8673 85.6878 39.6653 85.2691 39.5168C84.8505 39.3683 84.3953 39.2344 83.9012 39.1127C83.407 38.9935 82.9519 38.8255 82.5332 38.6064C82.1145 38.3898 81.7665 38.0953 81.489 37.7204C81.2115 37.3456 81.0752 36.8223 81.0752 36.1504C81.0752 35.2231 81.4281 34.4612 82.1413 33.8624C82.8496 33.2636 83.9012 32.9642 85.2935 32.9642C85.6513 32.9642 86.0286 32.9861 86.4253 33.03C86.8221 33.0762 87.192 33.1346 87.5352 33.2101L87.3551 34.4222C87.0119 34.3176 86.6444 34.2348 86.2549 34.1764C85.8655 34.1156 85.476 34.0863 85.089 34.0863C84.2225 34.0863 83.575 34.2592 83.149 34.6024C82.7206 34.9456 82.5089 35.4105 82.5089 35.9947C82.5089 36.4742 82.6476 36.8393 82.9227 37.0949C83.2001 37.348 83.5507 37.5549 83.9766 37.7107C84.4026 37.8689 84.8578 38.0052 85.3446 38.1245C85.8314 38.2438 86.2866 38.4093 86.7125 38.6186C87.1385 38.8279 87.4914 39.12 87.7665 39.4949C88.044 39.8697 88.1803 40.3784 88.1803 41.021" fill="#F2F2F2" fill-opacity="0.8"/>
<path d="M98.9999 37.4549V37.7689C98.9999 37.9052 98.9853 38.1194 98.9537 38.4188H91.3934C91.3618 39.1977 91.4226 39.9035 91.5736 40.5388C91.722 41.1741 91.9581 41.6926 92.2794 42.0967C92.6007 42.5007 93.0072 42.7952 93.5013 42.9827C93.993 43.1701 94.5699 43.2626 95.2271 43.2626C95.7675 43.2626 96.3054 43.2066 96.8433 43.0946C97.3813 42.9827 97.89 42.822 98.3695 42.6127L98.6397 43.8005C98.1164 44.0098 97.5419 44.1729 96.9115 44.2946C96.2835 44.4139 95.619 44.4723 94.9155 44.4723C93.2847 44.4723 92.0409 44.0123 91.1817 43.0922C90.32 42.1721 89.8916 40.7238 89.8916 38.7522C89.8916 37.9295 89.9987 37.1628 90.2178 36.452C90.4344 35.7413 90.7533 35.1279 91.1719 34.6119C91.5906 34.0958 92.0944 33.6918 92.6859 33.3997C93.2774 33.1076 93.9541 32.9615 94.716 32.9615C95.4778 32.9615 96.1302 33.0808 96.6681 33.3194C97.206 33.5579 97.6515 33.8914 98.002 34.3173C98.3525 34.7433 98.6056 35.2228 98.7638 35.7534C98.9196 36.2841 98.9999 36.8488 98.9999 37.4476M97.4957 37.1993C97.4957 36.2719 97.2425 35.5222 96.7338 34.9453C96.2251 34.3684 95.5216 34.0812 94.6259 34.0812C93.8032 34.0812 93.1119 34.3587 92.5496 34.9112C91.9898 35.4638 91.6247 36.2719 91.4616 37.3332H97.4957V37.1968V37.1993Z" fill="#F2F2F2" fill-opacity="0.8"/>
<path d="M76.8248 44.2979V37.0736C76.8248 36.1462 76.6642 35.4208 76.3429 34.8975C76.0216 34.3742 75.4276 34.1113 74.5587 34.1113C74.0354 34.1113 73.5534 34.2306 73.1104 34.4691C72.6698 34.7101 72.2926 35.046 71.9786 35.4793C71.6646 35.9125 71.4163 36.4285 71.2386 37.0273C71.0585 37.6261 70.9684 38.276 70.9684 38.9795V44.2979H69.5566V33.1474H70.9927C70.9927 33.5369 70.9781 33.9823 70.9489 34.4813C70.9197 34.9827 70.8662 35.4062 70.7907 35.7494L70.8345 35.7713C71.1485 34.9194 71.6524 34.2379 72.3485 33.7292C73.0447 33.2204 73.8844 32.9673 74.8727 32.9673C75.5153 32.9673 76.0532 33.0598 76.4865 33.2472C76.9222 33.4346 77.2654 33.6878 77.5185 34.0091C77.7741 34.3304 77.9567 34.7101 78.0686 35.1409C78.1806 35.5766 78.2366 36.0391 78.2366 36.5332V44.2955H76.8224L76.8248 44.2979Z" fill="#F2F2F2" fill-opacity="0.8"/>
</g>
<defs>
<clipPath id="clip0_6349_42527">
<rect width="103" height="44" fill="white" transform="translate(0 0.777832)"/>
</clipPath>
</defs>
</svg>
